<?xml version="1.0" standalone="no"?>
<!DOCTYPE svg PUBLIC "-//W3C//DTD SVG 20010904//EN"
 "http://www.w3.org/TR/2001/REC-SVG-20010904/DTD/svg10.dtd">
<svg version="1.0" xmlns="http://www.w3.org/2000/svg"
 width="1024.000000pt" height="1024.000000pt" viewBox="0 0 1024.000000 1024.000000"
 preserveAspectRatio="xMidYMid meet">

<g transform="translate(0.000000,1024.000000) scale(0.100000,-0.100000)"
fill="#000000" stroke="none">
<path d="M6444 9746 c-69 -17 -109 -42 -156 -97 -58 -69 -78 -137 -78 -269 0
-108 -1 -110 -23 -110 -12 0 -38 5 -57 11 -44 14 -228 46 -340 59 -47 5 -119
15 -160 20 -232 31 -721 36 -960 9 -299 -33 -671 -94 -728 -119 -13 -5 -32
-10 -42 -10 -11 0 -20 -3 -20 -8 0 -4 -28 -13 -62 -19 -87 -17 -351 -103 -455
-149 -17 -8 -34 -14 -38 -14 -16 0 -457 -217 -555 -273 -74 -43 -385 -247
-435 -287 -311 -243 -658 -598 -821 -840 -13 -19 -44 -62 -69 -95 -24 -33 -58
-82 -75 -110 -17 -27 -35 -57 -40 -65 -83 -131 -237 -423 -280 -530 -23 -56
-50 -119 -76 -177 -8 -17 -14 -38 -14 -46 0 -9 -4 -18 -9 -21 -5 -3 -12 -18
-15 -33 -8 -31 -43 -128 -57 -155 -5 -10 -9 -23 -9 -29 0 -6 -6 -25 -14 -42
-8 -18 -21 -63 -29 -102 -9 -38 -23 -99 -31 -135 -27 -106 -47 -210 -57 -290
-6 -41 -14 -88 -19 -105 -8 -27 -16 -138 -38 -538 -4 -65 -4 -166 0 -225 4
-59 12 -190 18 -292 6 -102 15 -198 20 -215 5 -16 13 -66 19 -110 15 -122 46
-270 94 -445 9 -30 21 -75 27 -100 6 -25 15 -54 20 -65 5 -11 21 -56 36 -100
15 -44 31 -84 36 -89 4 -6 8 -16 8 -24 0 -8 6 -28 14 -45 8 -18 27 -61 41 -97
45 -110 156 -323 209 -405 19 -27 65 -99 103 -160 39 -60 92 -140 119 -177 27
-36 80 -109 118 -161 38 -52 83 -111 100 -130 17 -19 54 -61 83 -94 152 -172
490 -490 652 -613 18 -14 45 -34 59 -45 41 -31 191 -129 247 -161 28 -15 86
-51 131 -80 l80 -52 -9 -93 c-4 -52 -7 -197 -5 -324 3 -218 5 -232 27 -275 30
-58 67 -97 113 -121 34 -17 61 -19 316 -19 318 0 312 -1 387 82 75 83 89 123
92 263 2 92 5 119 15 117 7 -2 47 -13 88 -24 41 -11 100 -25 130 -32 30 -6 60
-15 67 -19 7 -4 49 -13 95 -18 46 -6 92 -15 103 -20 25 -11 163 -29 219 -29
23 0 46 -4 51 -9 13 -13 332 -32 530 -32 163 0 482 18 498 28 4 3 59 11 121
18 63 7 122 18 132 23 11 6 55 15 99 20 88 12 219 38 250 52 11 4 43 14 70 21
28 6 55 15 60 19 6 4 31 10 56 14 26 4 55 13 65 21 11 8 30 15 42 15 13 0 38
6 55 14 18 8 53 19 79 26 26 7 49 18 52 26 3 8 18 14 34 14 30 0 106 33 117
50 3 5 17 10 31 10 24 0 149 55 159 69 2 5 19 11 36 15 17 3 43 15 59 26 15
11 35 20 43 20 8 0 20 7 27 15 6 8 22 17 33 21 12 3 36 16 52 28 17 12 44 28
60 36 17 8 32 17 35 20 3 3 19 12 35 20 17 8 61 35 99 60 38 25 79 52 92 60
88 58 164 114 164 121 0 5 5 9 11 9 14 0 175 126 293 229 84 73 319 302 331
322 6 10 34 42 63 73 28 31 52 60 52 65 0 4 10 19 23 32 81 88 197 231 197
243 0 4 14 25 30 46 17 21 30 45 30 54 0 9 7 16 15 16 8 0 15 7 15 15 0 8 5
15 10 15 6 0 10 6 10 14 0 7 9 25 20 39 11 14 20 32 20 40 0 8 6 17 13 20 7 2
25 29 41 58 15 30 39 72 52 94 13 22 27 47 31 55 4 8 17 29 30 46 13 17 23 35
23 39 0 9 10 31 75 170 53 114 65 142 65 158 0 9 4 18 9 21 5 4 8 14 7 23 -2
9 7 32 20 50 12 19 26 48 30 66 3 17 12 41 19 52 7 11 16 39 20 62 4 24 10 45
15 48 5 3 11 23 15 45 4 22 10 40 15 40 5 0 11 19 15 42 4 23 11 49 16 58 8
15 31 114 50 220 6 30 14 64 19 75 5 11 14 56 20 100 6 44 14 109 19 145 22
162 33 396 28 575 -7 259 -26 484 -43 517 -8 15 -11 33 -9 41 10 25 -28 252
-46 273 -5 7 -9 16 -7 20 4 16 -24 144 -32 144 -4 0 -10 25 -14 55 -3 31 -10
63 -15 73 -5 9 -16 37 -24 62 -8 25 -19 59 -25 75 -6 17 -19 57 -28 90 -9 33
-20 64 -25 70 -5 5 -9 15 -9 21 0 7 -19 52 -41 101 -23 48 -50 107 -61 131
-11 23 -24 42 -30 42 -5 0 -8 6 -5 13 11 32 -187 358 -321 527 -262 331 -436
496 -578 549 -103 39 -283 35 -378 -9 -25 -11 -51 -20 -59 -20 -21 0 -140 -93
-174 -137 -38 -48 -83 -136 -83 -162 0 -11 -4 -23 -10 -26 -16 -10 -12 -121 7
-178 25 -77 36 -92 157 -212 145 -145 348 -396 387 -480 11 -24 32 -58 40 -65
13 -12 75 -108 102 -159 107 -202 100 -189 197 -416 5 -11 25 -74 45 -140 20
-66 41 -131 46 -145 21 -56 62 -301 80 -480 13 -123 6 -563 -10 -630 -6 -25
-15 -76 -20 -115 -22 -162 -56 -323 -81 -380 -4 -11 -27 -81 -51 -155 -23 -74
-46 -139 -51 -145 -4 -5 -8 -15 -8 -23 0 -7 -8 -32 -19 -55 -10 -23 -28 -68
-40 -101 -59 -161 -241 -491 -355 -646 -216 -292 -423 -507 -631 -655 -23 -16
-76 -56 -117 -87 -41 -32 -80 -58 -86 -58 -5 0 -12 -3 -14 -8 -3 -8 -98 -71
-140 -93 -15 -8 -64 -36 -110 -63 -84 -50 -350 -186 -363 -186 -4 0 -21 -7
-38 -15 -38 -17 -337 -116 -422 -139 -33 -9 -94 -26 -135 -37 -90 -25 -206
-46 -360 -65 -63 -8 -144 -19 -180 -25 -147 -24 -658 0 -855 41 -27 6 -86 17
-130 25 -159 28 -321 68 -372 91 -17 8 -35 14 -41 14 -26 0 -122 53 -123 68
-1 9 -1 54 0 99 1 59 -2 83 -11 83 -9 0 -9 3 0 12 17 17 16 174 0 182 -10 5
-10 7 0 12 15 7 16 66 1 81 -8 8 -8 13 0 17 16 10 15 176 -1 176 -9 0 -9 3 0
12 15 15 16 190 1 205 -8 8 -8 13 0 17 15 10 14 63 -1 70 -10 5 -10 7 0 12 16
7 16 51 0 57 -10 3 -10 9 0 26 16 27 16 163 0 179 -9 9 -9 15 0 24 7 7 12 33
12 58 0 25 -5 51 -12 58 -9 9 -9 12 0 12 15 0 16 92 1 107 -8 8 -8 13 0 17 16
10 15 668 -1 684 -9 9 -9 15 0 24 16 16 17 359 1 375 -8 8 -8 13 0 17 14 9 15
146 1 146 -5 0 -10 11 -10 24 0 14 5 28 10 31 14 9 12 55 -2 55 -9 0 -9 3 0
12 16 16 16 140 0 156 -9 9 -9 15 0 24 15 15 16 144 2 153 -5 3 -10 17 -10 31
0 13 5 24 10 24 6 0 10 38 10 95 0 64 -4 95 -11 95 -8 0 -8 4 0 14 8 10 12 53
10 130 -1 64 1 119 5 124 5 4 16 -4 25 -18 19 -29 330 -371 556 -610 223 -237
362 -387 465 -500 62 -69 168 -183 235 -255 66 -71 158 -172 204 -222 45 -51
112 -124 149 -162 37 -38 90 -93 117 -123 28 -29 88 -94 135 -143 145 -154
325 -347 376 -405 27 -30 88 -95 136 -145 48 -49 97 -103 110 -120 101 -130
180 -186 283 -199 69 -9 201 10 242 34 19 11 39 20 44 20 14 0 77 48 117 89
18 18 47 61 65 95 l32 61 0 3007 0 3008 290 0 c209 -1 296 -4 311 -13 22 -13
417 -401 588 -577 55 -57 153 -156 217 -220 107 -106 121 -117 185 -138 98
-33 182 -41 267 -27 40 7 84 17 98 23 46 19 92 66 116 119 23 53 23 57 23 414
0 355 0 361 -22 392 -12 18 -81 88 -152 157 -72 68 -230 222 -351 341 -233
228 -307 290 -371 308 -59 16 -1831 14 -1900 -3z m-1024 -1215 c241 -20 640
-95 763 -143 l27 -10 0 -1966 0 -1966 -37 45 c-40 47 -68 75 -154 154 -53 50
-188 201 -284 320 -27 34 -89 105 -136 156 -138 150 -186 210 -316 389 -26 36
-91 115 -143 175 -52 61 -126 151 -165 200 -38 50 -72 92 -75 95 -3 3 -34 39
-70 80 -36 41 -108 120 -160 175 -53 55 -132 138 -175 185 -103 109 -344 358
-463 479 -122 124 -249 262 -303 331 -104 133 -176 184 -297 214 -71 17 -74
17 -170 -5 -175 -39 -276 -133 -336 -315 -15 -47 -16 -226 -16 -2383 1 -1284
-1 -2336 -4 -2338 -12 -13 -296 272 -479 480 -120 136 -296 386 -379 537 -22
41 -49 86 -58 100 -9 14 -37 70 -60 125 -24 55 -47 105 -52 111 -26 35 -136
358 -167 494 -12 52 -26 109 -31 125 -5 17 -12 53 -16 80 -3 28 -10 57 -15 66
-4 8 -13 69 -19 135 -6 65 -12 133 -14 149 -13 95 -16 358 -6 485 18 244 51
491 70 535 9 22 23 75 48 180 10 39 20 75 23 80 4 6 10 30 14 55 4 25 10 50
14 55 4 6 17 37 30 70 13 33 29 74 37 92 8 17 14 36 14 43 0 15 18 56 86 195
30 61 54 114 54 118 0 5 11 23 25 41 14 18 25 40 25 48 0 9 7 22 16 29 9 7 20
22 25 34 18 40 56 103 90 147 19 25 41 56 49 68 8 12 51 67 95 122 44 55 91
114 105 132 14 17 44 51 67 76 23 25 50 56 61 70 41 53 211 212 313 293 146
116 311 237 325 237 1 0 32 20 67 45 35 24 145 83 243 130 98 47 190 91 204
98 30 15 353 121 430 141 173 46 388 82 625 107 186 19 439 19 655 0z"/>
</g>
</svg>
